<svg xmlns="http://www.w3.org/2000/svg" width="16" height="16" viewBox="0 0 16 16"><path d="M14.9 4.2C14.2 3 13.2 2 12 1.3 10.8 0.6 9.4 0.2 8 0.2 6.5 0.2 5.2 0.6 4 1.3 2.8 2 1.8 3 1.1 4.2 0.4 5.4 0 6.7 0 8.2 0 9.9 0.5 11.5 1.5 12.9 2.5 14.3 3.9 15.2 5.5 15.8 5.6 15.8 5.8 15.8 5.9 15.7 6 15.6 6 15.5 6 15.4 6 15.4 6 15.2 6 14.8 6 14.5 6 14.2 6 13.9L5.8 13.9C5.6 14 5.4 14 5.2 14 5 14 4.7 13.9 4.5 13.9 4.2 13.9 4 13.8 3.8 13.6 3.6 13.4 3.4 13.2 3.3 13L3.2 12.7C3.1 12.6 3 12.4 2.9 12.2 2.7 12 2.6 11.9 2.4 11.8L2.4 11.7C2.3 11.7 2.3 11.7 2.2 11.6 2.2 11.6 2.1 11.5 2.1 11.5 2.1 11.4 2.1 11.4 2.2 11.3 2.2 11.3 2.3 11.3 2.5 11.3L2.7 11.3C2.8 11.4 3 11.4 3.2 11.6 3.4 11.7 3.6 11.9 3.7 12.1 3.9 12.4 4.1 12.6 4.3 12.8 4.5 12.9 4.7 13 5 13 5.2 13 5.4 13 5.6 12.9 5.7 12.9 5.9 12.9 6 12.8 6.1 12.3 6.3 12 6.5 11.7 6.1 11.7 5.8 11.6 5.5 11.5 5.2 11.4 4.8 11.3 4.5 11.1 4.2 10.9 3.9 10.7 3.7 10.4 3.4 10.1 3.3 9.8 3.1 9.3 3 8.9 2.9 8.4 2.9 7.8 2.9 6.9 3.2 6.2 3.7 5.6 3.5 5 3.5 4.3 3.8 3.5 4 3.4 4.3 3.5 4.7 3.6 5.1 3.8 5.4 3.9 5.6 4 5.7 4.2 5.9 4.3 6 4.3 6.6 4.1 7.3 4.1 8 4.1 8.7 4.1 9.3 4.1 10 4.3L10.4 4.1C10.7 3.9 11 3.8 11.3 3.6 11.7 3.5 12 3.4 12.2 3.5 12.5 4.3 12.5 5 12.3 5.6 12.8 6.2 13.1 6.9 13.1 7.8 13.1 8.4 13 8.9 12.9 9.3 12.7 9.8 12.6 10.2 12.3 10.4 12.1 10.7 11.8 10.9 11.5 11.1 11.1 11.3 10.8 11.4 10.5 11.5 10.2 11.6 9.8 11.7 9.4 11.7 9.8 12 10 12.5 10 13.2L10 15.4C10 15.5 10 15.6 10.1 15.7 10.2 15.8 10.3 15.8 10.5 15.8 12.1 15.2 13.4 14.3 14.5 12.9 15.5 11.5 16 9.9 16 8.2 16 6.7 15.6 5.4 14.9 4.2ZM14.9 4.2" style=" stroke:none;fill:rgb(0%,0%,0%)"/></svg>
